/* XPM */
static char *result[] = {
/* columns rows colors chars-per-pixel */
"64 64 136 2 ",
"   c #3E5067",
".  c #3F5167",
"X  c #3F5068",
"o  c #3E5168",
"O  c #3F5168",
"+  c #3F5169",
"@  c #4D4D4B",
"#  c #4E4D4B",
"$  c #4D4C4C",
"%  c #4D4D4C",
"&  c #4D4C4D",
"*  c gray30",
"=  c #4E4C4C",
"-  c #4E4D4C",
";  c #4E4C4D",
":  c #4B4E52",
">  c #4B4F52",
",  c #4B4E53",
"<  c #4B4F53",
"1  c #4C4E51",
"2  c #4C4E52",
"3  c #4C4F52",
"4  c #4C4F53",
"5  c #4C545E",
"6  c #4C555E",
"7  c #4C545F",
"8  c #4C555F",
"9  c #4D555F",
"0  c #415063",
"q  c #455363",
"w  c #465262",
"e  c #465263",
"r  c #465363",
"t  c #405064",
"y  c #415064",
"u  c #405067",
"i  c #405167",
"p  c #465264",
"a  c #465364",
"s  c #4C5460",
"d  c #4D5460",
"f  c #4D5660",
"g  c #405068",
"h  c #1B5AAB",
"j  c #1C5AAA",
"k  c #1C5AAB",
"l  c #1C5BAB",
"z  c #195AAF",
"x  c #195BAF",
"c  c #1A5BAF",
"v  c #195AB0",
"b  c #195BB0",
"n  c #1A5AB0",
"m  c #1A5BB0",
"M  c #2A69B7",
"N  c #2B69B7",
"B  c #2A68B8",
"V  c #2B68B8",
"C  c #2A69B8",
"Z  c #2B69B8",
"A  c #2A68B9",
"S  c #4A78B3",
"D  c #4978B4",
"F  c #4A78B4",
"G  c #4A79B4",
"H  c #045FD5",
"J  c #055FD5",
"K  c #045FD6",
"L  c #055FD6",
"P  c #0460D5",
"I  c #0560D5",
"U  c #0460D6",
"Y  c #0560D6",
"T  c #0460D7",
"R  c #0560D7",
"E  c #0461D7",
"W  c #0561D7",
"Q  c #0660D6",
"!  c #0360D8",
"~  c #0460D8",
"^  c #0461D8",
"/  c #0864DB",
"(  c #0964DB",
")  c #0865DB",
"_  c #0965DB",
"`  c #0964DC",
"'  c #0865DC",
"]  c #0965DC",
"[  c #166DDD",
"{  c #166DDE",
"}  c #176DDE",
"|  c #176EDE",
" . c #1371EA",
".. c #1370EB",
"X. c #1371EB",
"o. c #1471EB",
"O. c #1173F1",
"+. c #1777F3",
"@. c #1877F1",
"#. c #1877F2",
"$. c #1977F2",
"%. c #1877F3",
"&. c #1977F3",
"*. c #1877F4",
"=. c #1778F4",
"-. c #1678F7",
";. c #1679F7",
":. c #1779F7",
">. c #1878F2",
",. c #1978F2",
"<. c #1978F3",
"1. c #1978F4",
"2. c #1678F8",
"3. c #1778F8",
"4. c #1679F8",
"5. c #1779F8",
"6. c #3B89ED",
"7. c #3B88EE",
"8. c #3A89EE",
"9. c #3B89EE",
"0. c #3B89EF",
"q. c #4893F3",
"w. c #4893F4",
"e. c #4993F4",
"r. c #4893F5",
"t. c #4993F5",
"y. c #4894F4",
"u. c #4994F4",
"i. c #4894F5",
"p. c #4994F5",
"a. c #4A94F4",
"s. c #4B94F4",
"d. c #4A95F4",
"f. c #4B95F4",
"g. c #4B95F5",
"h. c None",
/* pixels */
"h.h.h.h.h.h.h.h.h.h.h.h.h.h.h.h.h.h.h.h.h.h.h.h.h.h.h.h.h.h.h.* * h.h.h.h.h.h.h.h.h.h.h.h.h.h.h.h.h.h.h.h.h.h.h.h.h.h.h.h.h.h.h.",
"h.h.h.h.h.h.h.h.h.h.h.h.h.h.h.h.h.h.h.h.h.h.h.h.h.h.h.h.h.* % y + = * h.h.h.h.h.h.h.h.h.h.h.h.h.h.h.h.h.h.h.h.h.h.h.h.h.h.h.h.h.",
"h.h.h.h.h.h.h.h.h.h.h.h.h.h.h.h.h.h.h.h.h.h.h.h.h.h.h.* $ y h ~ ~ m o - * h.h.h.h.h.h.h.h.h.h.h.h.h.h.h.h.h.h.h.h.h.h.h.h.h.h.h.",
"h.h.h.h.h.h.h.h.h.h.h.h.h.h.h.h.h.h.h.h.h.h.h.h.h.* % 0 k R Y Y Y Y T x . - * h.h.h.h.h.h.h.h.h.h.h.h.h.h.h.h.h.h.h.h.h.h.h.h.h.",
"h.h.h.h.h.h.h.h.h.h.h.h.h.h.h.h.h.h.h.h.h.h.h.* % t l ~ Y Y Y Y Y Y Y Y ! x O # * h.h.h.h.h.h.h.h.h.h.h.h.h.h.h.h.h.h.h.h.h.h.h.",
"h.h.h.h.h.h.h.h.h.h.h.h.h.h.h.h.h.h.h.h.h.* - 0 k R Y Y Y Y Y Y Y Y Y Y Y Y W c . # * h.h.h.h.h.h.h.h.h.h.h.h.h.h.h.h.h.h.h.h.h.",
"h.h.h.h.h.h.h.h.h.h.h.h.h.h.h.h.h.h.h.* - y k ^ Y Y Y Y Y Y Y Y Y Y Y Y Y Y Y Y ~ b O = * h.h.h.h.h.h.h.h.h.h.h.h.h.h.h.h.h.h.h.",
"h.h.h.h.h.h.h.h.h.h.h.h.h.h.h.h.h.* - 0 k R Y Y Y Y Y Y Y Y Y Y Y Y Y Y Y Y Y Y Y Y ~ n X - * h.h.h.h.h.h.h.h.h.h.h.h.h.h.h.h.h.",
"h.h.h.h.h.h.h.h.h.h.h.h.h.h.h.* - y j ~ Y Y Y Y Y Y Y Y Y Y Y Y Y Y Y Y Y Y Y Y Y Y Y Y ~ b O @ * h.h.h.h.h.h.h.h.h.h.h.h.h.h.h.",
"h.h.h.h.h.h.h.h.h.h.h.h.h.* % 0 h R Y Y Y Y Y Y Y Y Y Y Y Y Y Y Y Y Y Y Y Y Y Y Y Y Y Y Y Y E v i % * h.h.h.h.h.h.h.h.h.h.h.h.h.",
"h.h.h.h.h.h.h.h.h.h.h.* % y h ~ Y Y Y Y Y Y Y Y Y Y Y Y Y Y Y Y Y Y Y Y Y Y Y Y Y Y Y Y Y Y Y Y ~ b O = * h.h.h.h.h.h.h.h.h.h.h.",
"h.h.h.h.h.h.h.h.h.* % 0 j T Y Y Y Y Y Y Y Y Y Y Y Y Y Y Y Y Y Y Y Y Y Y Y Y Y Y Y Y Y Y Y Y Y Y Y Y ~ z g % * h.h.h.h.h.h.h.h.h.",
"h.h.h.h.h.h.h.* - y k ^ Y Y Y Y Y Y Y Y Y Y Y Y Y Y Y Y Y Y Y Y Y Y Y Y Y Y Y Y Y Y Y Y Y Y Y Y Y Y Y Y ~ c   # * h.h.h.h.h.h.h.",
"h.h.h.h.h.* - 0 k T Y Y Y Y Y Y Y Y Y Y Y Y Y Y Y Y Y Y Y Y Y Y Y Y Y Y Y Y Y Y Y Y Y Y Y Y Y Y Y Y Y Y Y Y T n u - * h.h.h.h.h.",
"h.h.h.h.$ t h ~ Y Y Y Y Y Y Y Y Y Y Y Y Y Y Y Y Y Y Y Y Y Y Y Y Y Y Y Y Y Y Y Y Y Y Y Y Y Y Y Y Y Y Y Y Y Y Y Y ~ x   - h.h.h.h.",
"h.h.h.h.& 8.} U Y Y Y Y Y Y Y Y Y Y Y Y Y Y Y Y Y Y Y Y Y Y Y Y Y Y Y Y Y Y Y Y Y Y Y Y Y Y Y Y Y Y Y Y Y Y Y Y L ) O.1 h.h.h.h.",
"h.h.h.h.* w.e.0.| Y Y Y Y Y Y Y Y Y Y Y Y Y Y Y Y Y Y Y Y Y Y Y Y Y Y Y Y Y Y Y Y Y Y Y Q Y Y Y Y Y Y Y Y Y L ( o.#.4., h.h.h.h.",
"h.h.h.h.* w.w.w.t.9.| Y Y Y Y Y Y Y Y Y Y Y Y Y Y Y Y Y Y Y Y Y Y Y Y Y Y Y Y Y Y Y Y Y Y Y Y I Y Y Y Y K ] X.$.#.#.2., h.h.h.h.",
"h.h.h.h.% w.w.w.w.w.y.9.| L Y Y Y Y Y Y Y Y Y Y Y Y Y Y Y Y Y Y Y Y Y Y Y Y Y Y Y Y Y Y Y Y Y Y Y Y Y ] X.#.#.#.#.#.2.: h.h.h.h.",
"h.h.h.h.* i.w.w.w.w.w.w.p.7.{ K Y Y Y Y Y Y Y Y Y Y Y Y Y Y Y Y Y Y Y Y Y Y Y Y Y Y Y Y Y Y Y Y U ] X.$.#.#.#.#.#.#.2.: h.h.h.h.",
"h.h.h.h.% r.w.w.w.w.w.w.w.w.e.7.} P Y Y Y Y Y Y Y Y Y Y Y Y Y Y Y Y Y I Y Y Y Y Y Y Y Y Y Y Y ' X.#.#.#.#.#.#.#.#.#.-.> h.h.h.h.",
"h.h.h.h.% w.w.w.w.w.w.w.w.w.w.w.e.7.[ K Y Y Y Y Y Y Y Y Y Y Y Y Y Y Y Y Y Y Y Y Y Y Y Y L ) X.#.#.#.#.#.#.#.#.#.#.#.2.> h.h.h.h.",
"h.h.h.h.& w.w.w.w.w.w.w.w.w.w.w.w.w.e.9.{ K Y Y Y Y Y Y Y Y Y Y Y Y Y Y Y Y Y Y Y Y U ` X.%.#.#.#.#.#.#.#.#.#.#.#.#.2., h.h.h.h.",
"h.h.h.h.* w.w.w.w.w.w.w.w.w.w.w.w.w.w.w.t.7.{ P Y Y Y Y Y Y Y Y Y Y Y Y Y Y Y Y L _ X.>.#.#.#.#.#.#.#.#.#.#.#.#.#.#.2.: h.h.h.h.",
"h.h.h.h.* e.w.w.w.w.w.w.w.w.w.w.w.w.w.w.w.w.e.8.{ K Y Y Y Y Y Y Y Y Y Y Y Y J ] X.#.#.#.#.#.#.#.#.#.#.#.#.#.#.#.#.#.2.> h.h.h.h.",
"h.h.h.h.* r.w.w.w.w.w.w.w.w.w.w.w.w.w.w.w.w.w.w.u.9.| P Y Y Y Y Y Y Y Y U / ..#.#.#.#.#.#.#.#.#.#.#.#.#.#.#.@.#.#.#.:.4 h.h.h.h.",
"h.h.h.h.* w.w.w.w.w.w.w.w.w.w.w.w.w.w.w.w.w.w.w.w.w.t.9.{ H Y Y Y Y Y ) ..$.#.#.#.@.#.#.#.#.#.#.#.#.#.#.#.#.#.#.#.#.3.2 h.h.h.h.",
"h.h.h.h.* y.w.w.w.w.w.w.w.w.w.w.w.w.w.w.w.w.w.w.w.w.w.w.u.8.{ H L `  .#.#.#.#.#.#.#.#.#.#.#.#.#.#.#.#.#.#.#.#.#.#.#.-.3 h.h.h.h.",
"h.h.h.h.% w.w.w.w.w.w.w.w.w.w.w.w.w.w.w.w.w.w.w.w.w.w.w.w.w.t.6. .#.#.#.#.#.#.#.#.#.#.#.#.#.#.#.#.#.#.#.#.#.#.#.#.#.4.> h.h.h.h.",
"h.h.h.h.* w.w.w.w.w.w.w.w.w.w.w.w.w.w.w.w.w.w.w.w.w.w.w.w.w.w.d.,.#.#.#.#.#.#.#.#.#.#.#.#.#.#.#.#.#.#.#.#.#.#.#.#.#.2.< h.h.h.h.",
"h.h.h.h.* w.w.w.w.w.w.w.w.w.w.w.w.w.w.w.w.w.w.w.w.w.w.w.w.w.w.d.&.#.#.#.#.#.#.#.#.#.#.#.#.#.#.#.#.#.#.#.#.#.#.#.#.#.5., h.h.h.h.",
"h.h.h.h.* w.w.w.w.w.w.w.w.w.w.w.w.w.w.w.w.w.w.w.w.w.w.w.w.w.w.f.#.#.#.#.#.#.#.#.#.#.#.#.#.#.#.#.#.#.#.#.#.#.#.#.#.#.2.: h.h.h.h.",
"h.h.h.h.% w.w.w.w.w.w.w.w.w.w.w.w.w.w.w.w.w.w.w.w.w.w.w.w.w.w.f.,.#.#.#.#.#.#.#.#.#.#.#.#.#.#.#.#.#.#.#.#.#.#.#.#.#.;.2 h.h.h.h.",
"h.h.h.h.* w.w.w.w.w.w.w.w.w.w.w.w.w.w.w.w.w.w.w.w.w.w.w.w.w.w.s.%.#.#.#.#.#.#.#.#.#.#.#.#.#.#.#.#.#.#.#.#.#.#.#.#.#.;.> h.h.h.h.",
"h.h.h.h.* w.w.w.w.w.w.w.w.w.w.w.w.w.w.w.w.w.w.w.w.w.w.w.w.w.w.f.&.#.#.#.#.#.#.#.#.#.#.#.#.#.#.#.#.#.#.#.#.#.#.#.#.#.-.> h.h.h.h.",
"h.h.h.h.* w.w.w.w.w.w.w.w.w.w.w.w.w.w.w.w.w.w.w.w.w.w.w.w.w.w.s.#.#.#.#.#.#.#.#.#.#.#.#.#.#.#.#.#.#.#.#.#.#.#.#.#.#.;., h.h.h.h.",
"h.h.h.h.* w.w.w.w.w.w.w.w.w.w.w.w.w.w.w.w.w.w.w.w.w.w.w.w.w.w.s.<.#.#.#.#.#.#.#.#.#.#.#.#.#.#.#.#.#.#.#.#.#.#.#.#.#.2.: h.h.h.h.",
"h.h.h.h.* w.w.w.w.w.w.w.w.w.w.w.w.w.w.w.w.w.w.w.w.w.w.w.w.w.w.f.,.#.#.#.#.#.#.#.#.#.#.#.#.#.@.#.#.#.#.#.#.#.#.#.#.#.4.: h.h.h.h.",
"h.h.h.h.* w.w.w.w.w.w.w.w.w.w.w.w.w.w.w.w.w.w.w.w.w.w.w.w.w.w.f.,.#.#.#.#.#.#.#.#.#.#.#.#.#.#.#.#.#.#.#.#.#.#.#.#.#.4., h.h.h.h.",
"h.h.h.h.& w.w.w.w.w.w.w.w.w.w.w.w.w.w.w.w.w.w.w.w.w.w.w.w.w.w.s.#.#.#.#.#.#.#.#.#.#.#.#.#.#.#.#.#.#.#.#.#.#.#.#.#.#.2.: h.h.h.h.",
"h.h.h.h.* i.w.w.w.w.w.w.w.w.w.w.w.w.w.w.w.w.w.w.w.w.w.w.w.w.w.a.,.#.#.#.#.#.#.#.#.#.#.#.#.#.#.#.#.#.#.#.#.#.#.#.#.#.4.4 h.h.h.h.",
"h.h.h.h.* t.w.w.w.w.w.w.w.w.w.w.w.w.w.w.w.w.w.w.w.w.w.w.w.w.w.f.$.#.#.#.#.#.#.#.#.#.#.#.#.#.#.#.#.#.#.#.#.#.#.#.#.#.4.> h.h.h.h.",
"h.h.h.h.* y.w.w.w.w.w.w.w.w.w.w.w.w.w.w.w.w.w.w.w.w.w.w.w.w.w.f.$.#.#.#.#.#.#.#.#.#.#.#.#.#.#.#.#.#.#.#.#.#.#.#.#.#.4.: h.h.h.h.",
"h.h.h.h.* y.w.w.w.w.w.w.w.w.w.w.w.w.w.w.w.w.w.w.w.w.w.w.w.w.w.f.<.#.#.#.#.#.#.#.#.#.#.#.#.#.#.#.#.#.#.#.#.#.#.#.#.#.2.2 h.h.h.h.",
"h.h.h.h.% w.w.w.w.w.w.w.w.w.w.w.w.w.w.w.w.w.w.w.w.w.w.w.w.w.w.s.#.#.#.#.#.#.#.#.#.#.#.#.#.#.#.#.#.#.#.#.#.#.#.#.#.#.-.2 h.h.h.h.",
"h.h.h.h.* w.w.w.w.w.w.w.w.w.w.w.w.w.w.w.w.w.w.w.w.w.w.w.w.w.w.g.#.#.#.#.#.#.#.#.#.#.#.#.#.#.#.#.#.#.#.#.#.#.#.#.#.#.;.: h.h.h.h.",
"h.h.h.h.* w.w.w.w.q.w.w.w.w.w.w.w.w.w.w.w.w.w.w.w.w.w.w.w.w.w.d.,.#.#.#.#.#.#.#.#.#.#.#.#.#.#.#.#.#.#.#.#.#.#.#.#.#.;.: h.h.h.h.",
"h.h.h.h.* w.w.w.w.w.w.w.w.w.w.w.w.w.q.w.w.w.w.w.w.w.w.w.w.w.w.a.,.#.#.#.#.#.#.#.#.#.#.#.#.#.#.#.#.#.#.#.#.#.#.#.#.#.2.4 h.h.h.h.",
"h.h.h.h.* q.w.w.w.w.w.w.w.w.w.w.w.w.w.w.w.w.w.w.w.w.w.w.w.w.w.f.$.#.#.#.#.#.#.#.#.#.#.#.#.#.#.#.#.#.#.#.#.#.#.#.#.#.2.: h.h.h.h.",
"h.h.h.h.* d S i.w.w.w.w.w.w.w.w.w.w.w.w.w.w.w.w.w.w.w.w.w.w.w.f.$.#.#.#.#.#.#.#.#.#.#.#.#.#.#.#.@.#.#.#.#.#.#.#.+.V e * h.h.h.h.",
"h.h.h.h.h.* % 9 S q.w.w.w.w.w.w.w.w.w.w.w.w.w.w.w.w.w.w.w.w.w.f.,.#.#.#.#.#.#.#.#.#.#.#.#.#.#.#.#.#.#.#.#.#.+.Z e % * h.h.h.h.h.",
"h.h.h.h.h.h.h.* $ 8 S i.w.w.w.w.w.w.w.w.w.w.w.w.w.w.w.w.w.w.w.a.$.#.#.#.#.#.#.#.#.#.#.#.#.#.#.#.#.#.#.#.*.B q * * h.h.h.h.h.h.h.",
"h.h.h.h.h.h.h.h.h.* * 5 F w.w.w.w.w.w.w.w.w.w.w.w.w.w.w.w.w.w.g.,.#.#.#.#.#.#.#.#.#.#.#.#.#.#.#.#.#.%.V w % * h.h.h.h.h.h.h.h.h.",
"h.h.h.h.h.h.h.h.h.h.h.* $ s S i.w.w.w.w.w.w.w.w.w.w.w.w.w.w.w.f.,.#.#.#.#.#.#.#.#.#.#.#.#.#.#.#.=.M a $ * h.h.h.h.h.h.h.h.h.h.h.",
"h.h.h.h.h.h.h.h.h.h.h.h.h.* * 6 S w.w.w.w.w.w.w.w.w.w.w.w.w.w.f.,.#.#.#.#.#.#.#.#.#.#.#.#.#.+.V w % * h.h.h.h.h.h.h.h.h.h.h.h.h.",
"h.h.h.h.h.h.h.h.h.h.h.h.h.h.h.* % s S y.w.w.w.w.w.w.w.w.w.w.w.f.,.#.#.#.#.#.#.#.#.#.#.#.*.N p $ * h.h.h.h.h.h.h.h.h.h.h.h.h.h.h.",
"h.h.h.h.h.h.h.h.h.h.h.h.h.h.h.h.h.* * 8 F w.w.w.w.w.w.w.w.w.w.s.,.#.#.#.#.#.#.#.#.#.%.V r % * h.h.h.h.h.h.h.h.h.h.h.h.h.h.h.h.h.",
"h.h.h.h.h.h.h.h.h.h.h.h.h.h.h.h.h.h.h.* * 8 F i.w.w.w.w.w.w.w.d.$.#.#.#.#.#.#.#.*.V q % * h.h.h.h.h.h.h.h.h.h.h.h.h.h.h.h.h.h.h.",
"h.h.h.h.h.h.h.h.h.h.h.h.h.h.h.h.h.h.h.h.h.* % 7 D w.w.w.w.w.w.s.,.#.#.#.#.#.%.C r ; * h.h.h.h.h.h.h.h.h.h.h.h.h.h.h.h.h.h.h.h.h.",
"h.h.h.h.h.h.h.h.h.h.h.h.h.h.h.h.h.h.h.h.h.h.h.* % s F r.w.w.w.g.>.#.#.#.=.V a % * h.h.h.h.h.h.h.h.h.h.h.h.h.h.h.h.h.h.h.h.h.h.h.",
"h.h.h.h.h.h.h.h.h.h.h.h.h.h.h.h.h.h.h.h.h.h.h.h.h.* - 7 G q.w.s.,.#.%.A e % * h.h.h.h.h.h.h.h.h.h.h.h.h.h.h.h.h.h.h.h.h.h.h.h.h.",
"h.h.h.h.h.h.h.h.h.h.h.h.h.h.h.h.h.h.h.h.h.h.h.h.h.h.h.* % s G g.1.V r % * h.h.h.h.h.h.h.h.h.h.h.h.h.h.h.h.h.h.h.h.h.h.h.h.h.h.h.",
"h.h.h.h.h.h.h.h.h.h.h.h.h.h.h.h.h.h.h.h.h.h.h.h.h.h.h.h.h.* % f r - * h.h.h.h.h.h.h.h.h.h.h.h.h.h.h.h.h.h.h.h.h.h.h.h.h.h.h.h.h.",
"h.h.h.h.h.h.h.h.h.h.h.h.h.h.h.h.h.h.h.h.h.h.h.h.h.h.h.h.h.h.h.* * h.h.h.h.h.h.h.h.h.h.h.h.h.h.h.h.h.h.h.h.h.h.h.h.h.h.h.h.h.h.h."
};
