/* XPM */
static char *result[] = {
/* columns rows colors chars-per-pixel */
"128 128 40 1 ",
"  c #4D4D4D",
". c #504C47",
"X c #504C48",
"o c #474E57",
"O c #4A4E54",
"+ c #454F5C",
"@ c #494F58",
"# c #4A5057",
"$ c #44505E",
"% c #4A5058",
"& c #444F60",
"* c #1F59A3",
"= c #1B5AAD",
"- c #2059A2",
"; c #3064A6",
": c #3165A9",
"> c #4B6D9A",
", c #4E71A0",
"< c #035ED4",
"1 c #0560D6",
"2 c #0361DB",
"3 c #0864DA",
"4 c #166DDE",
"5 c #186EDE",
"6 c #166EE0",
"7 c #1371EB",
"8 c #0D74F9",
"9 c #1777F4",
"0 c #1877F2",
"q c #1778F5",
"w c #1978F3",
"e c #147AFD",
"r c #3E8CEF",
"t c #3E8CF0",
"y c #4891EF",
"u c #408DF1",
"i c #4795F7",
"p c #4893F4",
"a c #4894F8",
"s c None",
/* pixels */
"sssssssssssssssssssssssssssssssssssssssssssssssssssssssssssssss  sssssssssssssssssssssssssssssssssssssssssssssssssssssssssssssss",
"sssssssssssssssssssssssssssssssssssssssssssssssssssssssssssssX     sssssssssssssssssssssssssssssssssssssssssssssssssssssssssssss",
"sssssssssssssssssssssssssssssssssssssssssssssssssssssssssssXO O      sssssssssssssssssssssssssssssssssssssssssssssssssssssssssss",
"sssssssssssssssssssssssssssssssssssssssssssssssssssssssssO OXXO-=$X    sssssssssssssssssssssssssssssssssssssssssssssssssssssssss",
"sssssssssssssssssssssssssssssssssssssssssssssssssssssss    Xo-21<2=&X    sssssssssssssssssssssssssssssssssssssssssssssssssssssss",
"sssssssssssssssssssssssssssssssssssssssssssssssssssss     o-22111112=&     sssssssssssssssssssssssssssssssssssssssssssssssssssss",
"sssssssssssssssssssssssssssssssssssssssssssssssssss     o*211111111112=$X    sssssssssssssssssssssssssssssssssssssssssssssssssss",
"sssssssssssssssssssssssssssssssssssssssssssssssss    XO-2111111111111122=$     sssssssssssssssssssssssssssssssssssssssssssssssss",
"sssssssssssssssssssssssssssssssssssssssssssssss O  Xo-21111111111111111112=$     sssssssssssssssssssssssssssssssssssssssssssssss",
"sssssssssssssssssssssssssssssssssssssssssssss    Xo-21<111111111111111111122=+     sssssssssssssssssssssssssssssssssssssssssssss",
"sssssssssssssssssssssssssssssssssssssssssss     o*2111111111111111111111111112=$     sssssssssssssssssssssssssssssssssssssssssss",
"sssssssssssssssssssssssssssssssssssssssss     o*21111111111111111111111111111<22=o     sssssssssssssssssssssssssssssssssssssssss",
"sssssssssssssssssssssssssssssssssssssss    Xo*211111111111111111111111111111111112=$X    sssssssssssssssssssssssssssssssssssssss",
"sssssssssssssssssssssssssssssssssssss     %-2111111111111111111111111111111111111122=&X    sssssssssssssssssssssssssssssssssssss",
"sssssssssssssssssssssssssssssssssss     o*21111111111111111111111111111111111111111112=&     sssssssssssssssssssssssssssssssssss",
"sssssssssssssssssssssssssssssssss     O-211111111111111111111111111111111111111111111112=+X    sssssssssssssssssssssssssssssssss",
"sssssssssssssssssssssssssssssssO    O*2111111111111111111111111111111111111111111111111111=&X    sssssssssssssssssssssssssssssss",
"sssssssssssssssssssssssssssss    X%*21111111111111111111111111111111111111111111111111111112=$     sssssssssssssssssssssssssssss",
"sssssssssssssssssssssssssss    X#*111111111111111111111111111111111111111111111111111111111112=&     sssssssssssssssssssssssssss",
"sssssssssssssssssssssssss     O-1111111111111111111111111111111111111111111111111111111111111112=%X    sssssssssssssssssssssssss",
"sssssssssssssssssssssss     O*21111111111111111111111111111111111111111111111111111111111111111122=$X    sssssssssssssssssssssss",
"sssssssssssssssssssss    Xo*211111111111111111111111111111111111111111111111111111111111111111111122=$     sssssssssssssssssssss",
"sssssssssssssssssss    XO*211111111111111111111111111111111111111111111111111111111111111111111111<112=$.    sssssssssssssssssss",
"sssssssssssssssss     O-21111111111111111111111111111111111111111111111111111111111111111111111111111112=$     sssssssssssssssss",
"sssssssssssssss     o*211111111111111111111111111111111111111111111111111111111111111111111111111111111112=$     sssssssssssssss",
"sssssssssssss     O-2111111111111111111111111111111111111111111111111111111111111111111111111111111111111112=+     sssssssssssss",
"sssssssssss    XO*21111111111111111111111111111111111111111111111111111111111111111111111111111111111111111122=+     sssssssssss",
"sssssssss     O-21111111111111111111111111111111111111111111111111111111111111111111111111111111111111111111<112=$X    sssssssss",
"sssssss     o*211111111111111111111111111111111111111111<111111111111111111111111111111111111111111111111111111112=+X    sssssss",
"sssssss   o-22111111111111111111111111111111111111111111111111111111111111111111111111111111111111111111111111111112=+   sssssss",
"sssssss   t6<<211111111111111111111111111111111111111<1111111111111111111111111111111111111111111111111111111111111138#O sssssss",
"sssssss   ppr5<11111111111111111111111111111111111111111111111111111111111111111111111111111111111111111111111111<37weO  sssssss",
"sssssss   ppppp4<1111111111111111111111111111111111111111111111111111111111111111111111111111111111111111111111<37000e%  sssssss",
"sssssss   ppppppu5<111111111111111111111111111111111111111111111111111111111111111111111111111111111111111111<3700000e%  sssssss",
"sssssssO  ppppppppu6<111111111111111111111111111111111111111111111111111111111111111111111111111111111111111370000000e#  sssssss",
"sssssss   ppppppppppu5<1111111111111111111111111111111111111111111111111111111111111111111111111111111111137000000000e%  sssssss",
"sssssss   ppppppppppppu5<111111111111111111111111111111111111111111111111111111111111111111111111111111<3700000000000e%  sssssss",
"sssssss   ppppppppppppppu4111111111111111111111111111111111111111111111111111111111111111111111111111<370000000000000e# Osssssss",
"sssssss   ppppppppppppppppt5<1111111111111111111111111111111111111111111111111111111111111111111111117ww0000000000000eo  sssssss",
"sssssss   ppppppppppppuippppr4<111111111111111111111111111111111111111111111111111111111111111111137w0ww0000000000000e#  sssssss",
"sssssss   ppppppppppppppppppppt4<11111111111111111111111111111111111111111111111111111111111111<370000000000000000000e%  sssssss",
"sssssss   ppppppppppppppppppppppt4<1111111111111111111111111111111111111111111111111111111111<17w00000000000000000000e%  sssssss",
"sssssss   ppppppppppppppppppppppppu4<11111111111111111111111111111111111111111111111111111<<37ww000000000000000000000e#  sssssss",
"sssssss   ppppppppppppppppppppppppppt4<11111111111111111111111111111111111111111111111111<27wwww00000000000000000000qe%  sssssss",
"sssssss   ppppppppppppppppppppppppppppu5<1111111111111111111111111111111111111111111111<17ww0000000000000000000000000e#  sssssss",
"sssssss   ppppppppppppppppppppppppppppppr4<11111111111111111111111111111111111111111113700wq000000000000000000000000qe#  sssssss",
"sssssssO  ppppppppppppppppppppppppppppppppr4<11111111111111111111111111111111111111<17ww00000000000000000000000000000e%  sssssss",
"sssssss   ppippppppppppppppppppuppppppppppppr4<<111111111111111111111111111111111<37w0ww0000000000000000000000000000we%  sssssss",
"sssssss   pppppppppppppppppppppippppppppppppppu6<<11111111111111111111111111111<17q0000000000000000000000000000000000eo  sssssss",
"sssssss   ppppppppppppppppppppppppppppppppppppppt6<<1111111111111111111111111<3700w0000000000000000000000000000000000e%  sssssss",
"sssssss   ppppppppppppppppppppppppppppppppppppppppt5<<111111111111111111111<17ww0000000000000000000000000000000000000e%  sssssss",
"sssssss   pppppppppppppppppppppppppppppppppppppppppat4<1111111111111111<1<37w0ww0000000000000000000000000000000000000e%  sssssss",
"sssssss O ppppppppppppppppppppppppppppppppppppppppppppu611111111111111<<<700www70000000000000000000000000000000000000e%  sssssss",
"sssssssO  ppppppppppppuippppppppppppppppppppppppppppppppu511111111111<17w000wwww0000000000000000000000000000000000000e%  sssssss",
"sssssss   ppppppppppppppppppppppppppppppppppppppppppppppppu51111111<37wwww0000ww0000000000000000000000000000000000000e#  sssssss",
"sssssss   pppppppppppppppppppppppppppppppppuipppppppppppppyyu5131<37wwwwqw0000000000000000000000000000000000000000000e# Osssssss",
"sssssss   pppppppppppppppppppppppuppppppppppppppppppppppppiupay5<7900000w0000000000000000000000000000000000000000000we%  sssssss",
"sssssss   pppppppppppppppppppppppippppppupppppppppppppppppppppppw990000000000000000000000000000000000000000000000000we%  sssssss",
"sssssss  Oppppppppppppppppppppppppppppppppppppppppppppppppppppppww00000000000000000000000000000000000000000000000000weo  sssssss",
"sssssss   pppppppppppppppppppuipppppppppppppppppppppppppppppppppww0000000000000000000000000000000000000000000000000wwe%  sssssss",
"sssssss   pppppppppppppuppppppppppppppppppppppppppppppppppppppppw9000000000000000000000000000000000000000000000000000eo  sssssss",
"sssssss   pppppppppppppppppppppppppppppppppppppppppppppppppppppaw900000000000000000000000000000000000000000000000000we%  sssssss",
"sssssss   ppppppppppppppppppppppppppppppppppppppppppppppppppppppw000000000000000000000000000000000000000000000000000we%  sssssss",
"sssssss   pppppppppppppppppppppppppppppppppppppppppppppppppppppp0000000000000000000000000000000000000000000000000000we%  sssssss",
"sssssss  Xpppppppppppppppppppppppppppppppppppppppppppppppppppppp00000000000000000000000000000000000000000000000000000eoOXsssssss",
"sssssss  Xpppppppppppppppppppppppppppppppppppppppppppppppppppppp00000000000000000000000000000000000000000000000000000e@XOsssssss",
"sssssss   pppppppppppppppppppypppppppppppppppppppppppppppppppppa0000000000000000000000000000000000000000000000000000weoXXsssssss",
"sssssss   ppppppppppppppppppppppppppppppppppppppppppppppppppppppw000000000000000000000000000000000000000000000000000we@O sssssss",
"sssssss   aappppppppppppppppppppppppppppppppppppppppppppppppppppw00000000000000000000000000000000000000000000000000009@X sssssss",
"sssssss   pappppppppppppppppppppppppppppppppppppppppppppppppppppw0000000000000000000000000000000000000000000000000000e@XOsssssss",
"sssssss   pppppppppppppppppppppppppppppppppppppppppppppppppppppaw0000000000000000000000000000000000000000000000000000e@OXsssssss",
"sssssss  Xppppppppppppppppppppppppppppppppppppppppppppppppppppppw0000000000000000000000000000000000000000000000000000e@X sssssss",
"sssssss   aappppppppppppppppppppppppppppppppppppppppppppppppppppw000000000000000000000000000000000000000000000000000we%O sssssss",
"sssssss  Xaapppppppppppppppppppppppppppppppppppppppppppppppppppp0000000000000000000000000000000000000000000000000000we%  sssssss",
"sssssss XXpappppppppppppppppppppppppppppppppppppppppppppppppppppw000000000000000000000000000000000000000000000000000weo  sssssss",
"sssssss XXpappppppppypppppppppppppppppppppppppppppppppppppppppppw0000000000000000000000000000000000000000000000000wwwe%XOsssssss",
"sssssss #Xaappppppppppppppppppppppppppppppppppppppppppppppppppppw0000000000000000000000000000000000000000000000000000eoOXsssssss",
"sssssss XXaappppppppppypppppppppppppppppppppppppppppppppppppppppww00000000000000000000000000000000000000000000000000weoXOsssssss",
"sssssss XXppppppppppppppppppppppppppppppppppppppppppppppppppppppw000000000000000000000000000000000000000000000000000we% Xsssssss",
"sssssss XXppppppppppppppppppppppppppppppppppppppppppppppppppppppw000000000000000000000000000000000000000000000000000we%  sssssss",
"sssssss   ppppppppppppppppppppppppppppppppppppppppppppppppppppppww00000000000000000000000000000000000000000000000000weO  sssssss",
"sssssss  #ppppppppppppppppppppppppppppppppppppyyppppppppppppppppw000000000000000000000000000000000000000000000000000weo  sssssss",
"sssssss   apppppppppppppppppppppppppppppppppppppppppppppppppppppwww0000000000000000000000000000000000000000000000000we%XOsssssss",
"sssssss   ipppppppppppppppppppppppppppppppppppppppppppppppppppppw7w0000000000000000000000000000000000000000000000000we@OXsssssss",
"sssssss  Xppppppyyppppppppppppppppppppppppppppppppppppppppppppppw0000000000000000000000000000000000000000000000000000eoX sssssss",
"sssssss   ppppppppppppppppppppppppppppppppppppppppppppppppppppppw00000000000000000000000ww000000000000000000000000000eo  sssssss",
"sssssss   ppppppppppppppppppppppppppppppppppppppppppppppppppppppww0000000000000000000000ww000000000000000000000000000eO  sssssss",
"sssssss   ppppppppppppppppppppppppppppppppppppppppppppppppppppppw0000000000000000000000070000000000000000000000000000eo  sssssss",
"sssssss   ppppppppppppppppppppppppppppppppppppppppppppppppppppapw000000000000000000000000000000000000000000000000000we%  sssssss",
"sssssss   ppppppppppppppppppppyppppppppppppppppppppppppppppppppa0000000000000000000000000000000000000000000000000000we% Osssssss",
"sssssss # ppppppppppppppppppppppppppppppppppppppppppppppppppppppw0000000000000000000000000000000000000000000000000000e% Xsssssss",
"sssssss#X ppppppppppppppppppppppppppppppppppppppppppppppppppppppw0000000000000000000000000000000000000000000000000000e%  sssssss",
"sssssss   ppppppppppppppppppppppppppppppppppppppppppppppppppppppw0000000000000000000000000000000000000000000000000000eo  sssssss",
"sssssss   ppppppppppppppppppppppppppppppppppppppppppppppppppppppw000000000000000000000000000000000000000000000000000weO  sssssss",
"sssssss   pppppppppppppppppppppppppppppppppppppppppppppppppppppa0000000000000000000000000000000000000000000000000000weO  sssssss",
"sssssss   ppppppppppppppppppppppppppppppppppppppppppppppppppppppw000000000000000000000000000000000000000000000000000we@ Osssssss",
"sssssss   pppppppppppppppppppppppppppppppppppppppppppppppppppppp0000000000000000000000000000000000000000000000000000weO  sssssss",
"sssssss   yppppppppppppppppppppppppppppppppppppppppppppipppppppp0000000000000000000000000000000000000000000000000000wqO Osssssss",
"sssssss    >pppppppppppppppppppppppppppppppppppppppppppupppppppp00000000000000000000000000000000000000000000000000qq;O   sssssss",
"ssssssss     >ppppppppppppppppppppppppppppppppppppppppppppppppppw00000000000000000000000000000000000000000000000we;      sssssss",
"sssssssss      >pppppppppppupppppppppuppppppppppppppppppppppppppw00000000000000000000000000000000000000000000wqw;      sssssssss",
"sssssssssss      >yppppppppipppppppppippppupppppppppppppppppppppww0000000000000000000000000000000000000000000w;O     sssssssssss",
"sssssssssssss      >ppppppppppppppppppppppppppppppppppppppppppppw000000000000000000000000000000000000000000q;O     sssssssssssss",
"sssssssssssssss      >uapppppppppppppppppppppppppppppppppppppppaw000000000000000000000000000000000000000qq;      sssssssssssssss",
"sssssssssssssssss      >ppppppppppppppppppppppppppppppppppppppppww0000000000000000000000000000000000w000; .    sssssssssssssssss",
"sssssssssssssssssss      >yppppppppppppppppppppppppppppppppppppa0w0000000000000000000000000000000000w0;O     sssssssssssssssssss",
"sssssssssssssssssssss      >papppppppppppppppppppppppppppppppppp0000000000000000000000000000000000qq;O     sssssssssssssssssssss",
"sssssssssssssssssssssss      >pppppppppppppppppppppppppupppppppp00000000000000000000000000000000qq;O     sssssssssssssssssssssss",
"sssssssssssssssssssssssss     .>ppppppppppppppppppppppppppppppppw00000000000000000000000000000qw;      sssssssssssssssssssssssss",
"sssssssssssssssssssssssssss      >ypppppppppppppppppppppppppipppw000000000000000000000000000qw;O     sssssssssssssssssssssssssss",
"sssssssssssssssssssssssssssss      >ppppppppppppppppppppppppppppww000000000000000000000000q0;O     sssssssssssssssssssssssssssss",
"sssssssssssssssssssssssssssssss      >paupppppppppppppppppppppppw00000000000000000000000qq;      sssssssssssssssssssssssssssssss",
"sssssssssssssssssssssssssssssssss     X,ppppppppppppppppppppppppw000000000000000000000w0;      sssssssssssssssssssssssssssssssss",
"sssssssssssssssssssssssssssssssssss #   X>ppppppppppppppppppppppww000000000000000000qq;O     sssssssssssssssssssssssssssssssssss",
"sssssssssssssssssssssssssssssssssssss      >ppppppppppppppppppppw000000000000000w0ww;O.    sssssssssssssssssssssssssssssssssssss",
"sssssssssssssssssssssssssssssssssssssss      >ppppppppppppppppapw000000000000000qq;O     sssssssssssssssssssssssssssssssssssssss",
"sssssssssssssssssssssssssssssssssssssssss      >pppppppppppppppaw00000000000000w;      sssssssssssssssssssssssssssssssssssssssss",
"sssssssssssssssssssssssssssssssssssssssssss     X,ppppppppppppppw0000000000ww0;      sssssssssssssssssssssssssssssssssssssssssss",
"sssssssssssssssssssssssssssssssssssssssssssss   XXX,ppppppppppppw0000000000q;O     sssssssssssssssssssssssssssssssssssssssssssss",
"sssssssssssssssssssssssssssssssssssssssssssssss  XXXX,ppppppppppw00000000q;OX    sssssssssssssssssssssssssssssssssssssssssssssss",
"sssssssssssssssssssssssssssssssssssssssssssssssss      ,ppppppppw00000qw;      sssssssssssssssssssssssssssssssssssssssssssssssss",
"sssssssssssssssssssssssssssssssssssssssssssssssssss    X >pppppaw00wqw:      sssssssssssssssssssssssssssssssssssssssssssssssssss",
"sssssssssssssssssssssssssssssssssssssssssssssssssssss      >ppppwwqw;O     sssssssssssssssssssssssssssssssssssssssssssssssssssss",
"sssssssssssssssssssssssssssssssssssssssssssssssssssssss      >pawq;   O  sssssssssssssssssssssssssssssssssssssssssssssssssssssss",
"sssssssssssssssssssssssssssssssssssssssssssssssssssssssss      ,:O     sssssssssssssssssssssssssssssssssssssssssssssssssssssssss",
"sssssssssssssssssssssssssssssssssssssssssssssssssssssssssss          sssssssssssssssssssssssssssssssssssssssssssssssssssssssssss",
"sssssssssssssssssssssssssssssssssssssssssssssssssssssssssssss      sssssssssssssssssssssssssssssssssssssssssssssssssssssssssssss",
"sssssssssssssssssssssssssssssssssssssssssssssssssssssssssssssss  sssssssssssssssssssssssssssssssssssssssssssssssssssssssssssssss"
};
