/* XPM */
static char *result[] = {
/* columns rows colors chars-per-pixel */
"32 32 90 1 ",
"  c #3A587D",
". c #3D5A7F",
"X c #4C4F53",
"o c #4D4F53",
"O c #494E54",
"+ c #484E55",
"@ c #494E55",
"# c #494F55",
"$ c #4B4E54",
"% c #4B4F54",
"& c #4A4E55",
"* c #4A4F55",
"= c #4B4F55",
"- c #484E56",
"; c #494E56",
": c #4D5053",
"> c #4D5054",
", c #455C7B",
"< c #4B607B",
"1 c #2B568C",
"2 c #2B568D",
"3 c #2B568E",
"4 c #2A568F",
"5 c #2B568F",
"6 c #2C558D",
"7 c #2C568C",
"8 c #2C568D",
"9 c #355F97",
"0 c #365F96",
"q c #356097",
"w c #366097",
"e c #3063A5",
"r c #3163A5",
"t c #3064A5",
"y c #3164A5",
"u c #4B6B95",
"i c #4A6C95",
"p c #4B6C96",
"a c #4A70A0",
"s c #4B70A0",
"d c #4A70A1",
"f c #4B70A1",
"g c #0B5FCB",
"h c #0A5ECC",
"j c #0B5ECC",
"k c #0A5FCC",
"l c #0B5FCC",
"z c #0A5FCD",
"x c #0B60CE",
"c c #0F61CD",
"v c #0560D6",
"b c #0661D7",
"n c #0963D7",
"m c #0662D8",
"M c #0963D8",
"N c #0A63D8",
"B c #0964D8",
"V c #0E6BE3",
"C c #0E6CE3",
"Z c #0E6BE4",
"A c #0F6BE4",
"S c #1D73E4",
"D c #1C74E4",
"F c #1D74E4",
"G c #1675F0",
"H c #1775F0",
"J c #1676F0",
"K c #1776F0",
"L c #1676F1",
"P c #1877F2",
"I c #1977F2",
"U c #1977F3",
"Y c #1878F2",
"T c #277AE5",
"R c #287BE5",
"E c #287AE6",
"W c #488CE4",
"Q c #498CE4",
"! c #498DE4",
"~ c #4A8DE5",
"^ c #4591F2",
"/ c #4590F3",
"( c #4591F3",
") c #4691F2",
"_ c #4893F4",
"` c #4993F4",
"' c #4A93F4",
"] c #4994F4",
"[ c #4A94F4",
"{ c None",
/* pixels */
"{{{{{{{{{{{{{{{@+{{{{{{{{{{{{{{{",
"{{{{{{{{{{{{{O1kz4;{{{{{{{{{{{{{",
"{{{{{{{{{{{O8jvvvvz5-{{{{{{{{{{{",
"{{{{{{{{{O2lvvvvvvvvz3+{{{{{{{{{",
"{{{{{{{@6gvvvvvvvvvvvvz3@{{{{{{{",
"{{{{{O7kvvvvvvvvvvvvvvvvz4#{{{{{",
"{{{&8hvvvvvvvvvvvvvvvvvvvvk5+{{{",
"{{,cvvvvvvvvvvvvvvvvvvvvvvvvx {{",
"{{d^RMvvvvvvvvvvvvvvvvvvvvbVKe{{",
"{{a__(TMvvvvvvvvvvvvvvvvbZLPPy{{",
"{{a____/EMvvvvvvvvvvvvbCGPPPPy{{",
"{{a______/RBvvvvvvvvmAHPPPPPPr{{",
"{{a________^EnvvvvbVJPPPPPPPPt{{",
"{{s__________^ENbZHPPPPPPPPPPt{{",
"{{f____________)KPPPPPPPPPPPPr{{",
"{{a____________]PPPPPPPPPPPPPr{{",
"{{a____________]PPPPPPPPPPPPPe{{",
"{{f____________]PPPPPPPPPPPPPe{{",
"{{d____________]IPPPPPPPPPPPPr{{",
"{{s____________]YPPPPPPPPPPPPr{{",
"{{s____________]PPPPPPPPPPPPPy{{",
"{{s____________]PPPPPPPPPPPPPy{{",
"{{s____________]PPPPPPPPPPPPPe{{",
"{{f____________]PPPPPPPPPPPPPy{{",
"{{<Q___________'IPPPPPPPPPPPS.{{",
"{{{ouQ_________]PPPPPPPPPPS0${{{",
"{{{{{:uW_______`UPPPPPPPD0={{{{{",
"{{{{{{{>uW_____`IPPPPPF9%{{{{{{{",
"{{{{{{{{{Xp!___[PPPPDw={{{{{{{{{",
"{{{{{{{{{{{:p!_[IPSq*{{{{{{{{{{{",
"{{{{{{{{{{{{{oi~Fw*{{{{{{{{{{{{{",
"{{{{{{{{{{{{{{{>={{{{{{{{{{{{{{{"
};
