/* XPM */
static char *result[] = {
/* columns rows colors chars-per-pixel */
"16 16 52 1 ",
"  c #2F578A",
". c #2A568F",
"X c #2B568F",
"o c #355989",
"O c #295690",
"+ c #2A5791",
"@ c #365E93",
"# c #34619B",
"$ c #33619C",
"% c #34619C",
"& c #4B6B93",
"* c #4A6E9C",
"= c #4B6E9C",
"- c #0F5DC2",
"; c #105DC1",
": c #105EC2",
"> c #0560D6",
", c #0660D6",
"< c #0763DA",
"1 c #0863DA",
"2 c #0E67DA",
"3 c #0F68DA",
"4 c #246CCB",
"5 c #246DCB",
"6 c #256DCB",
"7 c #246DCC",
"8 c #256DCC",
"9 c #2170D7",
"0 c #2070D8",
"q c #116EE7",
"w c #106FE7",
"e c #116EE8",
"r c #1776F2",
"t c #1777F2",
"y c #1877F1",
"u c #1877F2",
"i c #1977F2",
"p c #1878F2",
"a c #2F80E9",
"s c #3081E9",
"d c #4881CA",
"f c #4981CA",
"g c #4982CA",
"h c #4982CB",
"j c #4987D8",
"k c #4988D9",
"l c #4792F4",
"z c #4892F4",
"x c #4893F4",
"c c #4993F4",
"v c #4894F4",
"b c None",
/* pixels */
"bbbbbbb.+bbbbbbb",
"bbbbb.;>>-Obbbbb",
"bbbX;>>>>,>:.bbb",
"bo;>>,>>>>>>>: b",
"bds3>>>>>>>><w4b",
"bfxla2>>>>1etu6b",
"bfxxxla3<quuyu7b",
"bfxxxxxzruuuuu5b",
"bfxxxxxvuuuuuu6b",
"bgxxxxxcuuuuuu6b",
"bgxxxxxcpuuuuu7b",
"bhxxxxxcuuuuuu8b",
"b&kxxxxxuuuuu0@b",
"bbb*jxxciuu9#bbb",
"bbbbb*kcu0$bbbbb",
"bbbbbbb=%bbbbbbb"
};
