<?xml version="1.0" standalone="no"?>
<!DOCTYPE svg PUBLIC "-//W3C//DTD SVG 20010904//EN"
 "http://www.w3.org/TR/2001/REC-SVG-20010904/DTD/svg10.dtd">
<svg version="1.0" xmlns="http://www.w3.org/2000/svg"
 width="1024.000000pt" height="1024.000000pt" viewBox="0 0 1024.000000 1024.000000"
 preserveAspectRatio="xMidYMid meet">
<metadata>
Created by potrace 1.16, written by Peter Selinger 2001-2019
</metadata>
<g transform="translate(0.000000,1024.000000) scale(0.100000,-0.100000)"
fill="#000000" stroke="none">
<path d="M2870 5270 l0 -2260 2250 0 2250 0 0 2260 0 2260 -2250 0 -2250 0 0
-2260z m2459 2154 c74 -8 161 -22 195 -29 l61 -14 -50 4 c-27 2 -40 1 -27 -3
13 -4 23 -10 22 -15 0 -4 6 -23 14 -42 15 -35 8 -52 -16 -40 -7 4 -4 -1 7 -9
11 -9 25 -14 32 -12 7 3 12 0 10 -7 -1 -7 6 -11 15 -11 10 1 16 -2 15 -6 -1
-4 39 -35 90 -70 51 -34 91 -67 90 -73 -1 -7 5 -11 14 -9 9 1 23 -5 30 -15 12
-14 12 -16 0 -8 -10 6 -12 4 -7 -4 5 -7 14 -10 21 -7 13 5 65 -46 65 -64 0 -6
7 -13 15 -16 8 -4 13 -10 10 -14 -3 -5 3 -11 13 -14 28 -9 76 -63 63 -70 -6
-4 -11 -2 -11 3 0 6 -6 10 -12 8 -7 -1 -12 4 -10 12 2 8 -3 11 -13 8 -8 -4
-15 -2 -15 4 0 6 -6 7 -12 3 -10 -6 -10 -5 -1 7 11 14 9 16 -17 14 -16 -1 -28
3 -27 8 1 5 -14 15 -33 22 -19 7 -34 18 -32 25 1 6 -2 9 -8 5 -13 -8 -39 8
-124 80 -36 31 -70 54 -75 51 -4 -3 -17 4 -27 17 l-19 22 25 -20 25 -20 -25
28 c-13 15 -29 26 -36 23 -6 -2 -25 10 -40 27 l-29 32 35 -30 35 -30 -37 40
c-29 30 -40 37 -50 27 -8 -8 -15 -8 -24 -1 -9 8 -12 4 -9 -16 2 -22 -1 -26
-16 -22 -12 3 -19 0 -19 -9 0 -14 -75 -56 -84 -46 -3 3 -18 6 -33 7 -16 1 -46
4 -68 8 l-40 7 35 -10 c19 -6 65 -20 103 -31 37 -11 67 -24 67 -30 0 -7 -10
-9 -25 -5 -14 4 -102 20 -197 36 -95 16 -198 34 -228 41 -91 18 -327 22 -395
5 -57 -13 -51 -14 116 -9 139 5 178 3 184 -7 6 -9 4 -11 -6 -5 -12 8 -12 6 0
-8 12 -15 11 -17 -7 -17 -12 0 -23 -4 -26 -9 -3 -5 -21 -12 -40 -15 -19 -4
-36 -10 -38 -14 -2 -4 -64 -27 -138 -50 -134 -44 -427 -172 -590 -260 -197
-106 -403 -262 -524 -399 -66 -74 -67 -76 -15 -28 29 28 55 53 57 58 2 4 9 7
16 7 7 0 23 11 36 25 29 31 50 33 24 3 -10 -13 11 5 47 38 70 64 138 116 125
96 -4 -7 19 4 51 23 32 19 63 35 69 35 6 0 17 7 24 15 7 8 15 15 19 15 3 0
-46 -53 -109 -117 -161 -164 -270 -325 -416 -615 -121 -239 -213 -541 -232
-762 l-7 -81 -6 65 -6 65 -2 -85 c-3 -63 -5 -77 -11 -55 -4 17 -8 22 -9 13 0
-10 -5 -18 -11 -18 -9 0 -14 20 -11 45 0 6 -6 0 -15 -12 -9 -13 -23 -23 -30
-23 -13 0 -18 -12 -15 -32 0 -5 -3 -8 -9 -8 -5 0 -10 5 -10 10 0 6 -5 10 -11
10 -5 0 -8 -4 -5 -9 3 -5 -6 -21 -19 -35 l-25 -27 0 24 c0 17 -7 26 -21 30
-20 5 -20 5 -2 -16 16 -19 16 -20 1 -8 -10 7 -18 10 -18 5 0 -4 -6 0 -13 10
-11 15 -13 14 -15 -15 -2 -18 -5 -35 -9 -38 -3 -4 -3 28 0 69 4 53 3 71 -4 60
-16 -23 -3 376 15 493 9 54 28 146 42 203 24 94 28 103 41 87 8 -10 11 -11 7
-3 -7 13 -6 13 10 1 15 -13 19 -13 27 0 7 12 9 12 9 -1 1 -8 21 39 45 105 59
158 158 355 243 485 204 309 517 583 844 740 363 173 761 240 1157 194z m288
-50 c-3 -3 -12 -4 -19 -1 -8 3 -5 6 6 6 11 1 17 -2 13 -5z m358 -364 c10 -11
16 -20 13 -20 -3 0 -13 9 -23 20 -10 11 -16 20 -13 20 3 0 13 -9 23 -20z
m-745 -30 c220 -20 406 -69 590 -158 124 -59 222 -121 213 -134 -3 -7 -1 -8 6
-4 15 10 113 -62 104 -76 -3 -6 -2 -8 4 -5 13 8 55 -22 47 -34 -3 -5 0 -8 8
-7 7 2 12 -2 11 -9 -2 -7 3 -10 10 -7 7 2 22 -4 32 -16 10 -11 15 -20 10 -20
-4 0 -2 -7 5 -15 7 -8 16 -13 20 -10 4 3 39 -32 78 -78 261 -308 406 -677 416
-1057 3 -80 2 -130 0 -112 -3 17 -9 32 -13 32 -5 0 -12 10 -16 23 -7 20 -8 19
-15 -13 -6 -31 -8 -27 -9 25 -4 216 -68 475 -167 684 -169 357 -499 666 -860
805 -348 134 -674 160 -989 79 -55 -14 -108 -26 -117 -27 -10 0 -18 -4 -18 -9
0 -4 -5 -5 -11 -2 -5 4 -88 -31 -183 -78 -194 -96 -315 -183 -444 -322 -116
-124 -303 -423 -288 -461 3 -8 2 -13 -3 -10 -16 10 -97 -232 -131 -388 -10
-50 -24 -109 -29 -131 -6 -22 -13 -75 -17 -117 -4 -43 -10 -78 -15 -78 -4 0
-10 -17 -12 -37 -2 -21 -4 19 -5 89 -3 199 45 442 126 640 207 505 649 889
1153 1002 192 43 322 52 509 36z m1220 -241 c21 -30 48 -73 60 -95 24 -45 18
-38 -80 93 -36 48 -94 119 -130 158 -62 68 -62 67 24 -15 48 -47 105 -110 126
-141z m-413 134 c-4 -3 1 -12 11 -20 15 -13 15 -13 -6 -3 -19 9 -23 30 -5 30
4 0 3 -3 0 -7z m131 -58 c-3 -3 -9 2 -12 12 -6 14 -5 15 5 6 7 -7 10 -15 7
-18z m2 -45 l35 -32 -45 33 c-55 40 -72 55 -45 41 11 -6 36 -25 55 -42z m662
-197 c136 -183 243 -381 323 -600 34 -91 40 -100 56 -90 10 6 21 23 25 37 6
22 10 15 31 -49 13 -40 35 -128 49 -195 23 -109 26 -146 29 -381 1 -143 1
-233 -1 -200 -6 76 -12 95 -24 75 -5 -8 -6 -19 -3 -25 4 -5 2 -6 -3 -2 -10 10
-10 11 -14 65 l-3 37 -7 -40 c-6 -32 -7 -23 -9 45 -1 47 -8 144 -16 215 -8 72
-15 135 -15 140 0 6 -5 3 -10 -5 -6 -10 -10 -11 -10 -3 0 7 -6 12 -12 10 -7
-1 -12 3 -11 10 2 7 -7 17 -18 24 -17 9 -20 8 -13 -3 4 -7 -2 -5 -13 5 -11 9
-28 17 -39 17 -26 0 -41 11 -47 35 -4 17 -5 16 -7 -5 -1 -21 -4 -19 -15 15 -7
22 -13 33 -14 23 -1 -13 -10 -16 -47 -14 -25 1 -47 -1 -50 -6 -3 -4 -16 -1
-30 8 -24 16 -24 16 -25 -17 -1 -19 -7 13 -15 71 -35 259 -146 599 -259 792
-21 35 -34 60 -29 56 4 -4 14 -2 22 5 10 8 13 8 9 1 -4 -7 0 -15 9 -18 8 -3
13 -2 10 2 -7 11 4 25 42 51 26 18 31 26 21 37 -9 11 -9 14 1 14 10 0 10 3 0
15 -7 8 -17 12 -24 8 -6 -3 -8 -2 -3 2 4 5 -1 18 -10 30 -10 12 9 -6 41 -39
32 -34 90 -103 128 -153z m-601 150 c13 -16 12 -17 -3 -4 -10 7 -18 15 -18 17
0 8 8 3 21 -13z m320 -50 c13 -16 12 -17 -3 -4 -10 7 -18 15 -18 17 0 8 8 3
21 -13z m-2311 -17 c0 -2 -12 -11 -27 -20 l-28 -17 24 20 c23 21 31 25 31 17z
m-105 -78 c-76 -62 -235 -225 -286 -293 -25 -33 -65 -93 -88 -132 -51 -86 -67
-98 -20 -15 63 112 165 238 281 350 56 53 150 131 158 131 3 0 -17 -18 -45
-41z m-495 -82 c0 -2 -8 -10 -17 -17 -16 -13 -17 -12 -4 4 13 16 21 21 21 13z
m1890 -383 c-31 -3 -40 -7 -30 -14 13 -7 13 -9 -1 -9 -12 0 -15 -8 -13 -30 2
-16 -1 -30 -7 -30 -6 0 -8 -4 -5 -9 3 -5 -7 -23 -23 -40 -16 -17 -24 -31 -18
-31 8 0 8 -3 -1 -8 -7 -5 -10 -16 -7 -24 4 -10 -2 -18 -17 -23 -13 -5 -277
-10 -586 -12 l-564 -4 24 33 c14 18 53 72 87 121 l62 87 572 -2 c315 -1 552
-3 527 -5z m-311 -345 c-12 -24 -53 -115 -90 -203 -49 -116 -64 -162 -55 -167
7 -4 36 -8 64 -9 29 -2 52 -6 52 -11 0 -4 -9 -8 -20 -8 -11 0 -20 -7 -20 -15
0 -9 -6 -12 -17 -9 -15 5 -16 4 -3 -5 13 -10 13 -13 -4 -26 -10 -8 -16 -21
-13 -29 7 -19 -9 -31 -17 -14 -4 7 -5 4 -2 -8 2 -12 -2 -21 -9 -21 -8 0 -11 7
-8 16 4 10 0 9 -10 -4 -8 -11 -13 -23 -11 -27 3 -5 0 -8 -5 -8 -6 0 -11 -4
-11 -10 0 -16 22 -12 36 8 13 15 13 14 5 -8 -7 -21 -15 -25 -45 -24 -20 1 -36
-2 -36 -7 0 -4 107 -8 237 -9 130 0 239 -3 242 -5 2 -3 -109 -5 -247 -5 -242
0 -252 -1 -262 -20 -6 -11 -15 -18 -19 -16 -4 3 -8 -1 -8 -8 0 -8 5 -12 12
-10 6 3 11 -4 12 -15 1 -11 -5 -22 -12 -25 -10 -3 -12 0 -9 12 5 14 4 15 -5 2
-15 -21 -14 -30 4 -30 8 0 15 -8 15 -17 0 -16 -2 -16 -11 -3 -8 12 -9 8 -5
-15 l5 -30 -15 30 -14 30 6 -35 c8 -39 8 -44 5 -80 -1 -20 -3 -22 -11 -10 -8
13 -10 12 -10 -3 0 -10 -4 -15 -10 -12 -5 3 -10 4 -10 1 0 -2 -3 -13 -6 -23
-5 -15 -4 -15 5 -3 9 13 11 13 11 -2 0 -9 -7 -23 -15 -31 -7 -8 -17 -28 -20
-43 -5 -28 -5 -28 5 -5 6 15 14 21 20 15 11 -11 1 -64 -12 -64 -5 0 -6 -4 -3
-10 10 -16 -6 -81 -18 -73 -6 4 -7 1 -2 -6 4 -7 1 -33 -6 -58 -11 -39 -24 -55
-93 -110 -78 -62 -260 -163 -272 -151 -17 17 206 921 287 1166 30 91 32 93 92
136 126 90 230 140 319 155 29 5 54 9 56 10 1 0 -7 -18 -19 -41z m1858 -175
c-2 -16 -4 -5 -4 22 0 28 2 40 4 28 2 -13 2 -35 0 -50z m-1377 -227 c0 -2 -8
-10 -17 -17 -16 -13 -17 -12 -4 4 13 16 21 21 21 13z m-558 -78 c-7 -7 -12 -8
-12 -2 0 14 12 26 19 19 2 -3 -1 -11 -7 -17z m323 -99 c7 -7 -24 -9 -97 -8
-60 1 -108 5 -108 10 0 18 186 17 205 -2z m65 6 c0 -1 -9 -10 -19 -19 -19 -17
-19 -17 -16 1 2 10 4 18 4 19 2 2 31 1 31 -1z m-2323 -102 c-3 -10 -5 -4 -5
12 0 17 2 24 5 18 2 -7 2 -21 0 -30z m-10 -130 c-2 -16 -4 -5 -4 22 0 28 2 40
4 28 2 -13 2 -35 0 -50z m4140 10 c-3 -10 -5 -2 -5 17 0 19 2 27 5 18 2 -10 2
-26 0 -35z m-4430 -40 c-3 -10 -5 -4 -5 12 0 17 2 24 5 18 2 -7 2 -21 0 -30z
m80 15 c-3 -8 -6 -5 -6 6 -1 11 2 17 5 13 3 -3 4 -12 1 -19z m4340 -50 c-3 -7
-5 -2 -5 12 0 14 2 19 5 13 2 -7 2 -19 0 -25z m-3915 -352 c2 -19 0 -32 -4
-30 -8 5 -12 64 -4 64 2 0 6 -15 8 -34z m3588 -30 c0 -2 -8 -10 -17 -17 -16
-13 -17 -12 -4 4 13 16 21 21 21 13z m-3556 -164 c-3 -13 -1 -21 5 -18 10 6
26 -43 16 -52 -3 -3 -5 3 -5 14 0 14 -2 16 -9 6 -11 -18 -22 36 -14 68 3 13 2
21 -3 17 -5 -3 -10 20 -11 51 l-1 57 14 -60 c7 -33 11 -71 8 -83z m3494 82
c-93 -131 -377 -412 -497 -494 -41 -28 -42 -28 -11 -3 189 154 388 352 490
487 51 67 65 75 18 10z m-218 -24 c-6 -11 -13 -20 -16 -20 -2 0 0 9 6 20 6 11
13 20 16 20 2 0 0 -9 -6 -20z m-30 -50 c-6 -11 -13 -20 -16 -20 -2 0 0 9 6 20
6 11 13 20 16 20 2 0 0 -9 -6 -20z m-2829 -97 c13 -16 12 -17 -3 -4 -17 13
-22 21 -14 21 2 0 10 -8 17 -17z m-302 -233 c12 -30 18 -50 13 -45 -5 6 -17
32 -27 58 -13 34 -21 44 -27 35 -6 -8 -7 -5 -3 11 5 15 3 21 -3 17 -6 -3 -8 2
-5 13 2 10 -2 25 -10 32 -8 7 -12 22 -9 33 4 14 2 17 -8 11 -10 -6 -12 -4 -7
9 4 10 7 23 7 29 0 7 13 -24 29 -68 15 -44 38 -105 50 -135z m342 183 c13 -16
12 -17 -3 -4 -10 7 -18 15 -18 17 0 8 8 3 21 -13z m2529 4 c0 -2 -10 -12 -22
-23 l-23 -19 19 23 c18 21 26 27 26 19z m-2550 -58 c0 -5 4 -8 9 -4 5 3 13 0
17 -6 5 -8 3 -9 -6 -4 -9 5 -11 4 -6 -4 6 -9 14 -8 32 4 17 11 23 12 22 3 -2
-7 2 -12 8 -11 6 1 21 -9 34 -22 20 -21 20 -23 4 -20 -11 1 -18 8 -16 15 1 6
-2 8 -9 4 -8 -5 -9 -3 -4 7 5 8 5 11 0 7 -4 -4 -14 -3 -22 3 -7 6 -13 9 -13 5
0 -11 93 -91 102 -88 5 1 7 -1 4 -6 -5 -8 45 -52 59 -52 2 0 20 -16 39 -36 24
-25 35 -31 39 -21 3 8 0 20 -6 27 -7 7 0 5 16 -5 30 -19 35 -28 12 -19 -9 4
-15 1 -15 -8 0 -26 244 -169 310 -182 14 -2 47 -14 73 -25 27 -12 57 -21 67
-21 10 0 22 -5 25 -10 4 -6 10 -8 14 -5 5 2 23 0 42 -6 103 -32 158 -40 289
-45 80 -2 181 -6 225 -8 45 -2 71 0 60 5 -14 5 -7 8 25 8 25 1 91 12 148 26
222 54 468 167 633 291 70 52 105 72 93 53 -4 -8 15 5 42 29 28 23 54 42 59
42 5 0 32 21 59 48 l50 47 -49 -55 c-68 -74 -111 -111 -120 -102 -5 4 -5 2 -2
-5 13 -22 -205 -179 -350 -252 -214 -108 -403 -161 -646 -181 -462 -37 -944
140 -1277 469 -58 57 -97 98 -87 91 19 -14 23 0 5 18 -9 9 -9 12 0 12 7 0 12
-5 12 -11z m-260 -34 c0 -5 -5 -3 -10 5 -5 8 -10 20 -10 25 0 6 5 3 10 -5 5
-8 10 -19 10 -25z m477 -120 c0 -11 -4 -12 -14 -3 -7 6 -11 13 -8 16 3 3 -5
17 -17 31 -21 24 -21 24 8 -2 17 -15 31 -34 31 -42z m37 -14 c14 -15 15 -21 4
-27 -7 -4 -10 -3 -5 1 4 5 0 17 -10 27 -9 10 -14 18 -11 18 3 0 13 -9 22 -19z
m-219 -141 c10 -11 16 -20 13 -20 -3 0 -13 9 -23 20 -10 11 -16 20 -13 20 3 0
13 -9 23 -20z m140 -165 c50 -56 67 -79 39 -52 -28 26 -54 44 -59 40 -4 -5 -5
-2 -1 4 4 7 -9 30 -31 55 -21 24 -47 54 -58 68 l-19 25 21 -20 c11 -11 60 -65
108 -120z m2135 86 c0 -5 -13 -14 -30 -20 -16 -5 -30 -14 -30 -18 0 -5 -30
-26 -67 -48 -38 -22 -69 -43 -71 -47 -2 -4 -11 -8 -19 -8 -9 0 -14 -3 -10 -6
3 -4 23 0 44 8 45 18 146 34 278 43 33 3 78 7 100 9 22 2 65 5 97 7 31 2 55 7
52 10 -2 4 13 5 34 4 22 -1 45 4 57 14 11 8 4 -2 -15 -23 -19 -21 -80 -74
-135 -118 -55 -45 -99 -85 -97 -90 1 -5 -2 -7 -8 -3 -13 8 -72 -34 -64 -46 3
-5 11 -6 17 -2 7 3 5 -2 -4 -13 -27 -32 -28 -40 -9 -40 12 0 16 4 10 11 -5 6
2 10 20 10 16 1 26 -3 24 -7 -3 -5 -10 -6 -15 -3 -5 4 -9 2 -9 -4 0 -13 -107
-79 -218 -135 -204 -102 -423 -172 -667 -212 -155 -26 -526 -26 -677 -1 -194
33 -505 127 -491 150 3 6 1 7 -5 3 -16 -9 -133 44 -126 56 4 6 9 6 13 2 3 -5
15 -10 26 -12 51 -8 65 -11 74 -16 5 -3 8 2 7 11 -2 11 -11 18 -24 17 -15 -1
-19 4 -17 17 3 15 0 17 -21 9 -17 -7 -23 -7 -19 0 3 6 1 10 -5 10 -6 0 -8 5
-4 11 4 7 -2 6 -17 -2 -22 -11 -23 -11 -10 5 12 14 12 16 -4 10 -13 -5 -16 -4
-11 4 5 8 1 10 -10 5 -12 -4 -15 -3 -10 5 4 7 2 10 -6 7 -8 -3 -22 2 -33 11
-11 8 -14 13 -7 9 6 -3 12 -4 12 -1 0 10 -60 37 -70 31 -5 -3 -14 4 -20 15 -7
12 -18 19 -25 16 -8 -3 -17 0 -21 6 -4 7 -3 8 4 4 7 -4 12 -5 12 -2 0 9 -57
36 -63 30 -3 -3 -8 0 -13 7 -5 8 -3 10 7 5 8 -4 3 2 -11 13 -14 11 -30 19 -37
16 -7 -2 -15 1 -19 7 -5 7 -2 8 7 3 19 -11 2 6 -35 33 -15 12 -33 19 -39 15
-5 -3 -7 -2 -4 4 4 6 -22 33 -56 61 -34 28 -80 70 -102 94 -22 23 -28 32 -13
19 16 -14 31 -21 35 -18 3 4 12 2 20 -4 7 -6 13 -8 13 -4 0 4 8 1 17 -6 9 -8
14 -9 10 -3 -3 6 0 11 8 11 8 0 12 -4 9 -9 -3 -4 5 -8 16 -8 17 0 21 4 16 17
-6 16 -6 16 11 0 11 -9 27 -14 40 -11 13 4 28 -1 39 -13 51 -50 71 -63 71 -49
0 8 -5 12 -10 9 -6 -4 -7 -1 -2 7 6 9 4 11 -5 5 -9 -6 -11 -4 -5 5 5 9 19 -1
47 -34 33 -38 43 -44 54 -35 8 7 13 14 10 16 -2 2 2 16 9 30 8 15 11 31 8 37
-4 6 0 5 9 -2 9 -7 20 -11 25 -10 4 2 28 -15 52 -37 24 -22 48 -39 54 -37 6 2
29 -15 51 -36 95 -90 279 -222 293 -209 3 4 14 2 24 -4 45 -24 12 5 -70 61
-49 34 -95 69 -102 78 -11 14 -11 15 1 5 16 -15 50 0 50 22 0 7 5 17 12 21 7
5 8 3 3 -5 -6 -10 -3 -11 16 -1 l23 13 -27 14 c-15 7 -27 17 -27 22 0 4 -18
16 -40 26 -23 10 -43 22 -46 27 -4 5 16 -2 42 -15 106 -53 436 -178 545 -206
235 -61 276 -66 529 -66 208 0 247 3 340 23 99 22 293 82 286 89 -2 2 -56 -8
-120 -22 -143 -31 -325 -55 -412 -55 l-65 0 28 35 c15 19 26 37 23 40 -6 7
109 64 128 65 7 0 20 4 30 9 9 6 82 38 161 73 80 34 194 91 255 125 126 71
116 66 116 54z m-2675 -61 c21 -22 37 -40 34 -40 -3 0 -23 18 -44 40 -21 22
-37 40 -34 40 3 0 23 -18 44 -40z m355 -16 c5 -5 6 -14 2 -21 -5 -7 -13 -3
-24 12 -15 19 -15 23 -3 21 9 -1 19 -6 25 -12z m-289 -51 c13 -16 12 -17 -3
-4 -10 7 -18 15 -18 17 0 8 8 3 21 -13z m110 -100 c13 -16 12 -17 -3 -4 -17
13 -22 21 -14 21 2 0 10 -8 17 -17z m50 -40 c13 -16 12 -17 -3 -4 -17 13 -22
21 -14 21 2 0 10 -8 17 -17z m2614 -33 c-3 -5 -16 -15 -28 -21 -19 -9 -19 -8
3 10 28 23 34 26 25 11z m-2317 -158 c8 -7 17 -10 22 -7 4 3 10 -2 14 -10 4
-12 -3 -11 -34 5 -39 20 -52 32 -28 28 7 -2 19 -9 26 -16z"/>
<path d="M5448 7393 c6 -2 18 -2 25 0 6 3 1 5 -13 5 -14 0 -19 -2 -12 -5z"/>
<path d="M5446 7287 c3 -10 9 -15 12 -12 3 3 0 11 -7 18 -10 9 -11 8 -5 -6z"/>
<path d="M5008 7203 c7 -3 16 -2 19 1 4 3 -2 6 -13 5 -11 0 -14 -3 -6 -6z"/>
<path d="M5068 7193 c7 -3 16 -2 19 1 4 3 -2 6 -13 5 -11 0 -14 -3 -6 -6z"/>
<path d="M5850 7046 c0 -2 8 -10 18 -17 15 -13 16 -12 3 4 -13 16 -21 21 -21
13z"/>
<path d="M3161 5264 c0 -11 3 -14 6 -6 3 7 2 16 -1 19 -3 4 -6 -2 -5 -13z"/>
<path d="M6730 6676 c0 -2 8 -10 18 -17 15 -13 16 -12 3 4 -13 16 -21 21 -21
13z"/>
<path d="M6615 6583 c15 -32 25 -42 25 -24 0 5 -9 19 -20 32 l-21 24 16 -32z"/>
<path d="M6646 6527 c3 -10 9 -15 12 -12 3 3 0 11 -7 18 -10 9 -11 8 -5 -6z"/>
<path d="M4908 4963 c7 -3 16 -2 19 1 4 3 -2 6 -13 5 -11 0 -14 -3 -6 -6z"/>
<path d="M3915 4090 c21 -22 41 -40 44 -40 3 0 -13 18 -34 40 -21 22 -41 40
-44 40 -3 0 13 -18 34 -40z"/>
<path d="M6259 4053 c-13 -16 -12 -17 4 -4 9 7 17 15 17 17 0 8 -8 3 -21 -13z"/>
<path d="M3630 3702 c0 -4 10 -13 23 -21 22 -14 22 -14 3 8 -20 22 -26 25 -26
13z"/>
<path d="M6560 3690 c-8 -5 -7 -9 3 -13 9 -3 20 0 26 7 8 9 7 13 -4 13 -8 0
-19 -3 -25 -7z"/>
<path d="M4310 3240 c-9 -6 -10 -10 -3 -10 6 0 15 5 18 10 8 12 4 12 -15 0z"/>
</g>
</svg>
